<svg xmlns="http://www.w3.org/2000/svg" viewBox="0 0 1000 560" fill="none">
  <defs>
    <linearGradient id="ctaLine" x1="60" y1="470" x2="920" y2="90" gradientUnits="userSpaceOnUse">
      <stop offset="0%" stop-color="#7DA0CA"/>
      <stop offset="55%" stop-color="#5483B3"/>
      <stop offset="100%" stop-color="#7DA0CA"/>
    </linearGradient>
    <radialGradient id="ctaGlowA" cx="50%" cy="50%" r="50%">
      <stop offset="0%" stop-color="#5483B3" stop-opacity=".55"/>
      <stop offset="100%" stop-color="#5483B3" stop-opacity="0"/>
    </radialGradient>
    <radialGradient id="ctaGlowB" cx="50%" cy="50%" r="50%">
      <stop offset="0%" stop-color="#7DA0CA" stop-opacity=".45"/>
      <stop offset="100%" stop-color="#7DA0CA" stop-opacity="0"/>
    </radialGradient>
    <filter id="ctaBlurSoft" x="-50%" y="-50%" width="200%" height="200%">
      <feGaussianBlur stdDeviation="14"/>
    </filter>
    <filter id="ctaBlurWide" x="-80%" y="-80%" width="260%" height="260%">
      <feGaussianBlur stdDeviation="46"/>
    </filter>
  </defs>

  <circle cx="860" cy="120" r="230" fill="url(#ctaGlowA)" filter="url(#ctaBlurWide)"/>
  <circle cx="120" cy="470" r="200" fill="url(#ctaGlowB)" filter="url(#ctaBlurWide)"/>

  <g opacity=".5">
    <circle cx="70" cy="70" r="1.6" fill="#C1E8FF"/>
    <circle cx="140" cy="40" r="1.6" fill="#C1E8FF"/>
    <circle cx="210" cy="90" r="1.6" fill="#C1E8FF"/>
    <circle cx="780" cy="470" r="1.6" fill="#5483B3"/>
    <circle cx="850" cy="510" r="1.6" fill="#5483B3"/>
    <circle cx="920" cy="460" r="1.6" fill="#5483B3"/>
    <circle cx="500" cy="30" r="1.6" fill="#C1E8FF"/>
    <circle cx="960" cy="220" r="1.6" fill="#5483B3"/>
  </g>

  <path d="M60,470 L230,420 L340,450 L460,320 L560,360 L680,190 L800,230 L920,90"
        stroke="url(#ctaLine)" stroke-width="4" stroke-linecap="round" stroke-linejoin="round"
        filter="url(#ctaBlurSoft)" opacity=".9"/>
  <path d="M60,470 L230,420 L340,450 L460,320 L560,360 L680,190 L800,230 L920,90"
        stroke="url(#ctaLine)" stroke-width="2.4" stroke-linecap="round" stroke-linejoin="round"/>

  <circle cx="60" cy="470" r="5" fill="#7DA0CA"/>
  <circle cx="460" cy="320" r="5" fill="#5483B3"/>
  <circle cx="920" cy="90" r="6" fill="#7DA0CA"/>
  <circle cx="920" cy="90" r="12" fill="#7DA0CA" opacity=".35" filter="url(#ctaBlurSoft)"/>
</svg>
