<svg xmlns="http://www.w3.org/2000/svg" viewBox="0 0 1600 520" width="1600" height="520">
<defs>
<linearGradient id="g103" x1="0" y1="0" x2="1" y2="1"><stop offset="0" stop-color="#052659"/><stop offset="60%" stop-color="#5483B3" stop-opacity=".4"/><stop offset="100%" stop-color="#7DA0CA" stop-opacity=".6"/></linearGradient>
<linearGradient id="s103" x1="0" y1="0" x2="1" y2="0"><stop offset="0" stop-color="#7DA0CA"/><stop offset="100%" stop-color="#5483B3"/></linearGradient>
<filter id="b103"><feGaussianBlur stdDeviation="52"/></filter>
</defs>
<rect width="1600" height="520" fill="#021024"/><g filter="url(#b103)"><circle cx="261" cy="300" r="202" fill="#7DA0CA" opacity="0.15"/><circle cx="1189" cy="424" r="214" fill="#5483B3" opacity="0.09"/><circle cx="414" cy="223" r="333" fill="#7DA0CA" opacity="0.15"/></g>
<rect width="1600" height="520" fill="url(#g103)" opacity=".5"/><path d="M0 94 C 400 32, 880 155, 1600 69" fill="none" stroke="url(#s103)" stroke-width="1.6" opacity="0.28"/><path d="M0 161 C 400 108, 880 214, 1600 140" fill="none" stroke="url(#s103)" stroke-width="1.3" opacity="0.16"/><path d="M0 229 C 400 181, 880 277, 1600 210" fill="none" stroke="url(#s103)" stroke-width="1.2" opacity="0.22"/><path d="M0 296 C 400 238, 880 355, 1600 273" fill="none" stroke="url(#s103)" stroke-width="2.2" opacity="0.16"/><path d="M0 364 C 400 335, 880 393, 1600 352" fill="none" stroke="url(#s103)" stroke-width="1.3" opacity="0.31"/><path d="M0 432 C 400 405, 880 458, 1600 421" fill="none" stroke="url(#s103)" stroke-width="1.3" opacity="0.16"/></svg>