<svg xmlns="http://www.w3.org/2000/svg" viewBox="0 0 800 800" width="800" height="800">
<defs>
<linearGradient id="g16" x1="0" y1="0" x2="1" y2="1"><stop offset="0" stop-color="#052659"/><stop offset="55%" stop-color="#7DA0CA" stop-opacity=".55"/><stop offset="100%" stop-color="#7DA0CA" stop-opacity=".85"/></linearGradient>
<linearGradient id="s16" x1="0" y1="0" x2="1" y2="0"><stop offset="0" stop-color="#7DA0CA"/><stop offset="100%" stop-color="#7DA0CA"/></linearGradient>
<filter id="b16"><feGaussianBlur stdDeviation="66"/></filter>
</defs>
<rect width="800" height="800" fill="#021024"/><g filter="url(#b16)"><circle cx="467" cy="613" r="320" fill="#7DA0CA" opacity="0.22"/><circle cx="317" cy="370" r="226" fill="#7DA0CA" opacity="0.19"/><circle cx="356" cy="506" r="268" fill="#7DA0CA" opacity="0.21"/></g>
<rect width="800" height="800" fill="url(#g16)" opacity=".55"/><path d="M0 120 C 200 54, 440 186, 800 94" fill="none" stroke="url(#s16)" stroke-width="2.0" opacity="0.31"/><path d="M0 208 C 200 136, 440 280, 800 179" fill="none" stroke="url(#s16)" stroke-width="1.8" opacity="0.39"/><path d="M0 296 C 200 237, 440 355, 800 273" fill="none" stroke="url(#s16)" stroke-width="2.3" opacity="0.18"/><path d="M0 384 C 200 322, 440 446, 800 359" fill="none" stroke="url(#s16)" stroke-width="1.7" opacity="0.23"/><path d="M0 472 C 200 378, 440 566, 800 435" fill="none" stroke="url(#s16)" stroke-width="1.6" opacity="0.43"/><path d="M0 560 C 200 451, 440 669, 800 516" fill="none" stroke="url(#s16)" stroke-width="1.5" opacity="0.47"/><path d="M0 648 C 200 550, 440 746, 800 609" fill="none" stroke="url(#s16)" stroke-width="2.3" opacity="0.19"/><text x="400.0" y="782" text-anchor="middle" font-family="Manrope,Arial,sans-serif" font-size="30" fill="#C1E8FF" opacity=".35" letter-spacing="3">UI/UX</text></svg>