<svg xmlns="http://www.w3.org/2000/svg" viewBox="0 0 800 800" width="800" height="800">
<defs>
<linearGradient id="g11" x1="0" y1="0" x2="1" y2="1"><stop offset="0" stop-color="#052659"/><stop offset="55%" stop-color="#7DA0CA" stop-opacity=".55"/><stop offset="100%" stop-color="#C1E8FF" stop-opacity=".85"/></linearGradient>
<linearGradient id="s11" x1="0" y1="0" x2="1" y2="0"><stop offset="0" stop-color="#C1E8FF"/><stop offset="100%" stop-color="#7DA0CA"/></linearGradient>
<filter id="b11"><feGaussianBlur stdDeviation="66"/></filter>
</defs>
<rect width="800" height="800" fill="#021024"/><g filter="url(#b11)"><circle cx="15" cy="541" r="176" fill="#7DA0CA" opacity="0.10"/><circle cx="247" cy="614" r="167" fill="#C1E8FF" opacity="0.14"/><circle cx="605" cy="200" r="292" fill="#7DA0CA" opacity="0.18"/></g>
<rect width="800" height="800" fill="url(#g11)" opacity=".55"/><path d="M0 120 C 200 47, 440 193, 800 91" fill="none" stroke="url(#s11)" stroke-width="2.1" opacity="0.48"/><path d="M0 208 C 200 134, 440 282, 800 179" fill="none" stroke="url(#s11)" stroke-width="2.0" opacity="0.37"/><path d="M0 296 C 200 243, 440 349, 800 275" fill="none" stroke="url(#s11)" stroke-width="2.0" opacity="0.38"/><path d="M0 384 C 200 287, 440 481, 800 345" fill="none" stroke="url(#s11)" stroke-width="1.2" opacity="0.28"/><path d="M0 472 C 200 425, 440 519, 800 453" fill="none" stroke="url(#s11)" stroke-width="2.6" opacity="0.40"/><path d="M0 560 C 200 517, 440 603, 800 543" fill="none" stroke="url(#s11)" stroke-width="3.0" opacity="0.49"/><path d="M0 648 C 200 561, 440 735, 800 613" fill="none" stroke="url(#s11)" stroke-width="2.2" opacity="0.23"/><text x="400.0" y="782" text-anchor="middle" font-family="Manrope,Arial,sans-serif" font-size="30" fill="#C1E8FF" opacity=".35" letter-spacing="3">LOCAL SEO</text></svg>