<svg xmlns="http://www.w3.org/2000/svg" viewBox="0 0 800 800" width="800" height="800">
<defs>
<linearGradient id="g10" x1="0" y1="0" x2="1" y2="1"><stop offset="0" stop-color="#052659"/><stop offset="55%" stop-color="#5483B3" stop-opacity=".55"/><stop offset="100%" stop-color="#5483B3" stop-opacity=".85"/></linearGradient>
<linearGradient id="s10" x1="0" y1="0" x2="1" y2="0"><stop offset="0" stop-color="#5483B3"/><stop offset="100%" stop-color="#5483B3"/></linearGradient>
<filter id="b10"><feGaussianBlur stdDeviation="66"/></filter>
</defs>
<rect width="800" height="800" fill="#021024"/><g filter="url(#b10)"><circle cx="677" cy="371" r="194" fill="#5483B3" opacity="0.19"/><circle cx="245" cy="450" r="317" fill="#5483B3" opacity="0.11"/><circle cx="4" cy="241" r="194" fill="#5483B3" opacity="0.21"/></g>
<rect width="800" height="800" fill="url(#g10)" opacity=".55"/><path d="M0 120 C 200 39, 440 201, 800 88" fill="none" stroke="url(#s10)" stroke-width="1.9" opacity="0.36"/><path d="M0 208 C 200 153, 440 263, 800 186" fill="none" stroke="url(#s10)" stroke-width="2.6" opacity="0.44"/><path d="M0 296 C 200 209, 440 383, 800 261" fill="none" stroke="url(#s10)" stroke-width="1.3" opacity="0.35"/><path d="M0 384 C 200 320, 440 448, 800 359" fill="none" stroke="url(#s10)" stroke-width="1.5" opacity="0.48"/><path d="M0 472 C 200 360, 440 584, 800 427" fill="none" stroke="url(#s10)" stroke-width="1.1" opacity="0.46"/><path d="M0 560 C 200 477, 440 643, 800 527" fill="none" stroke="url(#s10)" stroke-width="1.8" opacity="0.27"/><path d="M0 648 C 200 559, 440 737, 800 613" fill="none" stroke="url(#s10)" stroke-width="1.9" opacity="0.40"/><text x="400.0" y="782" text-anchor="middle" font-family="Manrope,Arial,sans-serif" font-size="30" fill="#C1E8FF" opacity=".35" letter-spacing="3">AIO</text></svg>